<svg width="66" height="16" viewBox="0 0 66 16" fill="none" xmlns="http://www.w3.org/2000/svg">
<path d="M5.586 11C4.914 10.9907 4.27933 10.86 3.682 10.608C3.08467 10.3467 2.56667 9.99667 2.128 9.558C1.68933 9.11 1.33933 8.58733 1.078 7.99C0.826 7.39267 0.7 6.758 0.7 6.086C0.7 5.40467 0.826 4.76533 1.078 4.168C1.33933 3.57067 1.68933 3.05267 2.128 2.614C2.576 2.166 3.09867 1.816 3.696 1.564C4.29333 1.30267 4.928 1.172 5.6 1.172H9.156V2.908H5.6C5.16133 2.908 4.75067 2.992 4.368 3.16C3.98533 3.328 3.64933 3.55667 3.36 3.846C3.07067 4.126 2.842 4.462 2.674 4.854C2.51533 5.23667 2.436 5.64733 2.436 6.086C2.436 6.52467 2.51533 6.94 2.674 7.332C2.842 7.71467 3.07067 8.05067 3.36 8.34C3.64933 8.62 3.98533 8.844 4.368 9.012C4.75067 9.18 5.16133 9.264 5.6 9.264H9.156V11H5.586ZM9.57742 1.186H11.3134V11H9.57742V1.186ZM21.2343 8.102C21.2343 8.64333 21.1736 9.10067 21.0523 9.474C20.9309 9.838 20.7816 10.1367 20.6043 10.37C20.4269 10.594 20.2356 10.7573 20.0303 10.86C19.8249 10.9533 19.6383 11 19.4703 11C19.1249 11 18.8263 10.958 18.5743 10.874C18.3223 10.79 18.0843 10.636 17.8603 10.412C17.6363 10.188 17.4076 9.87533 17.1743 9.474C16.9503 9.07267 16.6889 8.55467 16.3903 7.92L14.9903 4.98C14.9156 4.83067 14.8269 4.644 14.7243 4.42C14.6216 4.18667 14.5096 3.96267 14.3883 3.748C14.2763 3.524 14.1596 3.33267 14.0383 3.174C13.9263 3.01533 13.8236 2.92667 13.7303 2.908C13.6463 2.88933 13.5763 2.964 13.5203 3.132C13.4736 3.3 13.4549 3.608 13.4643 4.056V11H11.7283V4.056C11.7283 3.51467 11.7889 3.062 11.9103 2.698C12.0316 2.32467 12.1763 2.026 12.3443 1.802C12.5216 1.578 12.7129 1.41933 12.9183 1.326C13.1236 1.22333 13.3103 1.172 13.4783 1.172C13.8236 1.172 14.1223 1.214 14.3743 1.298C14.6263 1.382 14.8643 1.536 15.0883 1.76C15.3123 1.984 15.5363 2.29667 15.7603 2.698C15.9936 3.09 16.2596 3.60333 16.5583 4.238L18.0143 7.29C18.0983 7.47667 18.1916 7.68667 18.2943 7.92C18.4063 8.144 18.5183 8.35867 18.6303 8.564C18.7516 8.76 18.8636 8.928 18.9663 9.068C19.0783 9.19867 19.1763 9.264 19.2603 9.264C19.3443 9.25467 19.4049 9.166 19.4423 8.998C19.4889 8.82067 19.5076 8.522 19.4983 8.102V1.172H21.2343V8.102ZM26.721 3.958C26.7303 3.77133 26.7303 3.59867 26.721 3.44C26.7116 3.30933 26.693 3.188 26.665 3.076C26.637 2.964 26.595 2.908 26.539 2.908C26.4363 2.908 26.3383 3.02933 26.245 3.272C26.1516 3.50533 26.007 3.874 25.811 4.378L23.165 11H21.303L23.935 4.378C24.131 3.846 24.3223 3.37933 24.509 2.978C24.705 2.57667 24.915 2.24533 25.139 1.984C25.363 1.71333 25.6056 1.51267 25.867 1.382C26.1376 1.242 26.4456 1.172 26.791 1.172C27.2856 1.172 27.687 1.41 27.995 1.886C28.303 2.362 28.457 3.05267 28.457 3.958V8.214C28.4476 8.41 28.4476 8.58733 28.457 8.746C28.4663 8.87667 28.4803 8.998 28.499 9.11C28.5176 9.21267 28.5596 9.264 28.625 9.264C28.709 9.264 28.7883 9.17533 28.863 8.998C28.947 8.82067 29.059 8.55467 29.199 8.2H29.185L30.711 4.378C30.907 3.846 31.0983 3.37933 31.285 2.978C31.481 2.57667 31.691 2.24533 31.915 1.984C32.139 1.71333 32.3816 1.51267 32.643 1.382C32.9136 1.242 33.2216 1.172 33.567 1.172C34.0616 1.172 34.463 1.41 34.771 1.886C35.079 2.362 35.233 3.05267 35.233 3.958V11H33.497V3.958C33.5063 3.77133 33.5063 3.59867 33.497 3.44C33.4876 3.30933 33.469 3.188 33.441 3.076C33.413 2.964 33.371 2.908 33.315 2.908C33.2123 2.908 33.1143 3.02933 33.021 3.272C32.9276 3.50533 32.783 3.874 32.587 4.378L31.215 7.822C31.019 8.354 30.823 8.82067 30.627 9.222C30.4403 9.614 30.235 9.94533 30.011 10.216C29.7963 10.4773 29.5536 10.6733 29.283 10.804C29.0216 10.9347 28.7183 11 28.373 11C27.8783 11 27.477 10.762 27.169 10.286C26.8703 9.80067 26.721 9.11 26.721 8.214V3.958ZM46.0231 11H44.2871V4.056C44.2871 3.692 44.2498 3.40267 44.1751 3.188C44.1005 2.964 43.9418 2.852 43.6991 2.852C43.5031 2.852 43.3118 2.922 43.1251 3.062C42.9385 3.19267 42.7658 3.35133 42.6071 3.538C42.4485 3.72467 42.3038 3.916 42.1731 4.112C42.0518 4.308 41.9491 4.47133 41.8651 4.602L37.7211 11H35.6491L39.7931 4.602C40.1478 4.05133 40.4791 3.56133 40.7871 3.132C41.1045 2.69333 41.4218 2.32467 41.7391 2.026C42.0658 1.72733 42.4111 1.50333 42.7751 1.354C43.1485 1.19533 43.5731 1.116 44.0491 1.116C44.6371 1.116 45.1131 1.37267 45.4771 1.886C45.8411 2.39933 46.0231 3.12267 46.0231 4.056V11ZM51.3266 11C50.6546 10.9907 50.02 10.86 49.4226 10.608C48.8253 10.3467 48.3073 9.99667 47.8686 9.558C47.43 9.11 47.08 8.58733 46.8186 7.99C46.5666 7.39267 46.4406 6.758 46.4406 6.086C46.4406 5.40467 46.5666 4.76533 46.8186 4.168C47.08 3.57067 47.43 3.05267 47.8686 2.614C48.3166 2.166 48.8393 1.816 49.4366 1.564C50.034 1.30267 50.6686 1.172 51.3406 1.172H54.8966V2.908H51.3406C50.902 2.908 50.4913 2.992 50.1086 3.16C49.726 3.328 49.39 3.55667 49.1006 3.846C48.8113 4.126 48.5826 4.462 48.4146 4.854C48.256 5.23667 48.1766 5.64733 48.1766 6.086C48.1766 6.52467 48.256 6.94 48.4146 7.332C48.5826 7.71467 48.8113 8.05067 49.1006 8.34C49.39 8.62 49.726 8.844 50.1086 9.012C50.4913 9.18 50.902 9.264 51.3406 9.264H54.8966V11H51.3266ZM62.094 6.912H57.054V11H55.318V1.186H57.054V5.176H62.094V1.186H63.83V11H62.094V6.912Z" fill="#FFFFFF"/>
<path d="M34.56 12.2C35.324 12.2 35.804 12.596 35.804 13.236C35.804 13.872 35.324 14.268 34.56 14.268H34.072V15H33.28V12.2H34.56ZM34.512 13.644C34.84 13.644 35.004 13.492 35.004 13.236C35.004 12.976 34.84 12.824 34.512 12.824H34.072V13.644H34.512ZM37.8422 15L37.3342 14.256H36.9022V15H36.1102V12.2H37.3902C38.1542 12.2 38.6342 12.596 38.6342 13.236C38.6342 13.648 38.4342 13.952 38.0862 14.12L38.6902 15H37.8422ZM37.8342 13.236C37.8342 12.976 37.6702 12.824 37.3422 12.824H36.9022V13.644H37.3422C37.6702 13.644 37.8342 13.492 37.8342 13.236ZM40.4031 15.056C39.5071 15.056 38.8471 14.44 38.8471 13.6C38.8471 12.76 39.5071 12.144 40.4031 12.144C41.2991 12.144 41.9591 12.76 41.9591 13.6C41.9591 14.44 41.2991 15.056 40.4031 15.056ZM40.4031 14.4C40.8271 14.4 41.1591 14.084 41.1591 13.6C41.1591 13.116 40.8271 12.8 40.4031 12.8C39.9791 12.8 39.6471 13.116 39.6471 13.6C39.6471 14.084 39.9791 14.4 40.4031 14.4ZM42.2939 15V12.2H43.6179C44.5459 12.2 45.1819 12.74 45.1819 13.6C45.1819 14.46 44.5459 15 43.6179 15H42.2939ZM43.0859 14.368H43.5859C44.0619 14.368 44.3819 14.084 44.3819 13.6C44.3819 13.116 44.0619 12.832 43.5859 12.832H43.0859V14.368ZM46.8106 15.056C45.9826 15.056 45.4946 14.588 45.4946 13.752V12.2H46.2866V13.728C46.2866 14.208 46.4866 14.4 46.8186 14.4C47.1466 14.4 47.3466 14.208 47.3466 13.728V12.2H48.1266V13.752C48.1266 14.588 47.6386 15.056 46.8106 15.056ZM49.9791 15.056C49.0911 15.056 48.4391 14.452 48.4391 13.6C48.4391 12.748 49.0911 12.144 49.9791 12.144C50.4951 12.144 50.9111 12.332 51.1831 12.672L50.6791 13.128C50.5031 12.916 50.2871 12.8 50.0191 12.8C49.5591 12.8 49.2391 13.12 49.2391 13.6C49.2391 14.08 49.5591 14.4 50.0191 14.4C50.2871 14.4 50.5031 14.284 50.6791 14.072L51.1831 14.528C50.9111 14.868 50.4951 15.056 49.9791 15.056ZM52.0288 15V12.828H51.1688V12.2H53.6768V12.828H52.8208V15H52.0288ZM53.8919 15V12.2H54.6839V15H53.8919ZM56.5793 15.056C55.6833 15.056 55.0233 14.44 55.0233 13.6C55.0233 12.76 55.6833 12.144 56.5793 12.144C57.4753 12.144 58.1353 12.76 58.1353 13.6C58.1353 14.44 57.4753 15.056 56.5793 15.056ZM56.5793 14.4C57.0033 14.4 57.3353 14.084 57.3353 13.6C57.3353 13.116 57.0033 12.8 56.5793 12.8C56.1553 12.8 55.8233 13.116 55.8233 13.6C55.8233 14.084 56.1553 14.4 56.5793 14.4ZM60.3582 12.2H61.1342V15H60.4822L59.2462 13.508V15H58.4702V12.2H59.1222L60.3582 13.692V12.2ZM62.5968 15.056C62.1368 15.056 61.6808 14.932 61.4168 14.748L61.6768 14.164C61.9248 14.328 62.2768 14.44 62.6008 14.44C62.9288 14.44 63.0568 14.348 63.0568 14.212C63.0568 13.768 61.4648 14.092 61.4648 13.052C61.4648 12.552 61.8728 12.144 62.7048 12.144C63.0688 12.144 63.4448 12.228 63.7208 12.388L63.4768 12.976C63.2088 12.832 62.9448 12.76 62.7008 12.76C62.3688 12.76 62.2488 12.872 62.2488 13.012C62.2488 13.44 63.8368 13.12 63.8368 14.152C63.8368 14.64 63.4288 15.056 62.5968 15.056ZM64.4848 15.036C64.2288 15.036 64.0288 14.848 64.0288 14.584C64.0288 14.312 64.2288 14.136 64.4848 14.136C64.7448 14.136 64.9408 14.312 64.9408 14.584C64.9408 14.848 64.7448 15.036 64.4848 15.036Z" fill="#FFFFFF"/>
<path d="M64.4848 15.036C64.2288 15.036 64.0288 14.848 64.0288 14.584C64.0288 14.312 64.2288 14.136 64.4848 14.136C64.7448 14.136 64.9408 14.312 64.9408 14.584C64.9408 14.848 64.7448 15.036 64.4848 15.036Z" fill="#F67011"/>
</svg>
