<svg width="1080" height="1080" viewBox="0 0 1080 1080" fill="none" xmlns="http://www.w3.org/2000/svg">
<path d="M411.332 661.974L235.217 710.193L142.966 804.535L378.834 710.193L411.332 661.974Z" fill="#353535"/>
<path d="M957 260.524L474.478 365.684L440.684 433.457L828.557 352.742L745.741 526.751L601.075 570.777L675.505 419.83L554.95 443.94L318.033 945L634.621 713.338L509.872 765.75L554.95 671.408L819.122 586.501L957 260.524Z" fill="#353535"/>
<path d="M269.811 295.089L629.258 205L601.075 292.917L352.627 352.742L245.7 584.404L384.076 554.005L500.438 476.435L432.298 623.189L182.802 692.373L122 613.755L269.811 295.089Z" fill="#353535"/>
</svg>
